<?xml version="1.0" encoding="UTF-8"?>
<svg id="Layer_1" xmlns="http://www.w3.org/2000/svg" viewBox="0 0 742.05 1080">
  <defs>
    <style>
      .cls-1 {
        fill: #a7a6a6;
      }

      .cls-2 {
        fill: #fff;
      }
    </style>
  </defs>
  <path class="cls-2" d="M489.45,87.83c7.42.94,14.84,1.88,23,2.91-.67,6.79-.39,13.89-2.23,20.39-3.42,12.1,5.61,22.25,16.57,23.13,12.44,1,24.96,1.15,37.45,1.35,2.15.03,4.33-1.55,6.49-2.39-.17-.9-.33-1.81-.5-2.71-4.68-.43-9.36-.86-14.04-1.27-17.94-1.58-22.24-7.13-19.26-24.83q2.63-15.64,18.85-15.63c16.45,0,32.89.06,49.34-.03,3.91-.02,7.86-.29,11.72-.91,4.49-.72,6.51.94,6.77,5.4.3,5.08.52,10.2,1.33,15.22,1.57,9.84-1.18,17.74-9.44,23.53-1.33.93-2.67,1.84-4,2.76.69.23,1.39.46,2.08.7,3.94,40.85,7.88,81.7,11.93,123.67-29.15-2.03-58.37-4.07-88.1-6.15,1.45-14.97,2.9-29.9,4.32-44.83,1.16-12.21,1.99-24.45,3.58-36.6.59-4.51,2.92-8.79,4.46-13.16h-26.98c-2.13,13.51-4.62,26.85-6.26,40.28-4.75,38.78-9.35,77.57-13.62,116.4-2.35,21.38-3.43,42.9-5.99,64.25-2.45,20.52-10.75,38.52-25.7,53.34-32.12,31.83-48.46,69.98-48.09,115.74.59,73.66-.06,147.33-.06,221,0,69.95.08,139.9.26,209.85.11,42.59,31.58,75.52,74.25,78.1,7.34.44,14.67,1.14,21.68,1.69-25.01-14.97-45.93-33.25-47.62-64.92-1.28-24.03-.29-48.18-1.19-72.24-1-26.8-2.99-53.57-4.54-80.35-.06-1.11,0-2.22,0-3.65,8.22,10.29,15.73,20.68,24.26,30.16,16.68,18.53,35.85,33.5,61,38.95,19.99,4.33,39,1.65,57.26-7.51,24.89-12.47,45.74-29.79,57.98-54.86,7.5-15.37,12.98-32.32,15.98-49.16,5.35-30.04,9.57-60.51,6.32-91.19-4.06-38.33-12.29-75.41-36.49-106.93-25.06-32.65-56.94-50.56-99.18-44.18-27,4.07-47.73,19.41-64.77,39.87-6.61,7.94-11.83,17.02-18.83,27.26,0-13.42-.2-25.69.04-37.95.65-32.55,3.13-64.89,16.68-95.11,12.61-28.12,31.04-51.37,58.66-66.37,2.84-1.54,5.52-3.39,8.25-5.12.37-.23.6-.68,1.05-1.21-20.28-8.44-27.43-25.39-27.29-45.44.14-19.62,2.32-39.23,3.84-58.83.64-8.27,1.88-16.49,2.98-25.89,32.47,3.36,63-6.51,94.27-14.21,1.84,21.06,3.41,40.86,5.34,60.63,2.18,22.32,4.07,44.7,7.29,66.87,1.89,12.99,8.82,24.04,17.74,33.98,31.11,34.66,45.17,75.97,45.41,122.05.41,81.07.52,162.14.36,243.21-.11,56.52-.98,113.03-1.3,169.55-.14,24.22-5.33,46.69-19.69,66.75-8.06,11.26-18.95,17.91-32.42,22.28,26.88,2.38,52.48-15.9,58.53-43.51,3.42-15.64,4.35-32.08,4.42-48.17.37-84.55.1-169.11.08-253.66-.01-55.13.03-110.26.05-165.39.01-38.16-10.78-72.54-35.63-102.01-1.49-1.77-2.92-3.65-4.67-5.13-18.97-16.12-25.62-37.62-27.93-61.47-5.07-52.28-10.43-104.54-16.18-156.75-2.81-25.5-6.87-50.86-10.01-76.32-.29-2.33,1.27-5.99,3.17-7.3,9.07-6.22,11.13-14.77,9.85-24.93-.87-6.85-1.41-13.74-2.17-21.37,6.54-.66,13.08-1.46,19.64-1.83.92-.05,2.6,1.91,2.83,3.15,2.07,11.1,4.55,22.19,5.55,33.41.68,7.56-2.52,14.36-9.12,19.26-1.62,1.2-2.96,4.25-2.73,6.25,3.65,31.22,7.7,62.39,11.42,93.59,4.02,33.72,7.84,67.47,11.65,101.22,1.24,11.03,2.71,22.07,3.1,33.15.63,17.95,10.8,30.47,22.35,42.51,20.27,21.12,35.47,45.44,41.57,74.19,3.43,16.16,4.91,33,4.99,49.54.36,76.44-.21,152.88-.21,229.32,0,73.2,2.08,146.46-.22,219.58-1.41,45.02-32.49,81.29-77.49,84.92-29.04,2.34-58.31,2.1-87.48,2.25-31.26.16-62.52-.62-93.77-.92-35.74-.34-75.95-34.93-83.64-73.15-2.17-10.8-2.99-22.03-3.03-33.07-.22-74.13-.08-148.26-.03-222.39.05-70.19.02-140.38.26-210.56.16-46.38,15.62-86.51,49.41-119.07,10.52-10.14,21.04-20.62,23.47-36,2.31-14.61,4.29-29.29,6.02-43.99,3.16-26.87,5.85-53.81,9.07-80.67,4.32-36.04,9.06-72.04,13.24-108.1.35-3-1.43-6.94-3.48-9.4-5.42-6.51-9.3-13.63-8.53-22.09,1.01-11.02,3.06-21.95,4.66-32.92l-.21.18Z"/>
  <path class="cls-2" d="M284.11,19.9c-.87-3.62-1.62-6.71-2.54-10.56,14.39-3.21,28.48-6.51,42.67-9.3,1.68-.33,5.3,1.83,5.69,3.4,4.28,17.48,8.1,35.08,12.02,52.65.4,1.78.63,3.61,1.02,5.92-14.64,1.89-29.23,2.56-43.17,5.91-15.43,3.71-30.73,8.81-45.27,15.18-42.09,18.46-78.12,45.65-109.65,78.98-40.94,43.28-69.02,93.5-83.54,151.43-19.05,76.03-12.62,148.98,22.96,219.42,20.88,41.34,48.12,77.27,83.21,107.35,30.55,26.19,62.9,49.55,100.86,64.08,26.98,10.33,53.67,21.59,82.53,25.9,5.42.81,10.92,1.13,16.12,1.65v53.01c-5.7-.45-11.61-.55-17.39-1.44-53.17-8.18-103.56-24.44-149.51-52.89-59.72-36.99-110.56-83.63-146.58-144.26C4.65,504.04-11.35,415.42,7.99,320.97c9.67-47.21,26.15-91.63,52.5-132.1,46.37-71.24,107.51-124.84,187.49-155.63,11.81-4.54,23.73-8.78,36.13-13.35Z"/>
  <path class="cls-1" d="M473.27,737.1c1.1-36.65,2.8-67.78,16.96-96.54,10.1-20.51,22.56-39.2,42.32-52,24.35-15.76,57.29-16.01,81.66,4.61,23.72,20.08,35.75,46.22,43.9,75.12,9.84,34.91,9.79,70.02,4.55,105.66-4.08,27.78-12.17,53.88-30.28,75.44-18.64,22.2-42.06,36.74-72.67,31.34-23.64-4.17-41.54-18.29-55.76-37.23-16.43-21.89-23.53-47.34-27.43-73.83-1.85-12.54-2.54-25.25-3.24-32.58Z"/>
  <path class="cls-1" d="M345.5,344.02c5.62,26.98,10.93,53.55,16.86,79.99,1.24,5.51.54,6.84-5.1,8.13-40.4,9.27-80.68,19.04-120.99,28.71-3.3.79-6.5,1.99-10.15,3.13-10.89-30.68-15.85-62.43-19.38-94.83,46.48-8.42,92.8-16.81,138.77-25.13Z"/>
  <path class="cls-1" d="M327.84,223.14c4.43,32.09,8.89,64.38,13.4,97.11-44.47,7.73-89.09,15.48-134.61,23.39-.07-36.1,3.23-70.79,10.17-104.3,36.98-5.4,73.85-10.78,111.04-16.2Z"/>
  <path class="cls-1" d="M106.92,502.22c-5.67-18.59-12.34-36.75-16.58-55.46-3.81-16.78-5.08-34.15-7.05-51.31-.21-1.86,2.12-5.56,3.73-5.85,30.78-5.54,61.64-10.71,92.48-15.92,1.3-.22,2.68-.03,3.86-.03,3,18.85,5.61,37.49,9.04,55.98,2.09,11.25,4.97,22.42,8.41,33.34,1.81,5.74.1,7.53-4.97,9.19-26.49,8.7-52.89,17.67-79.32,26.57-2.6.88-5.16,1.87-9.61,3.48Z"/>
  <path class="cls-1" d="M234.86,486.03c40.06-10.06,79.79-19.96,119.48-30.03,15.9-4.03,15.65-4.12,21.99,11.28,2.11,5.12,1.23,9.12-.26,14.29-3.35,11.61-5.31,23.67-7.12,35.65-1.33,8.83-1.54,17.83-2.09,24.8-30.61,8.52-59.88,16.66-90.54,25.19-16.39-24.09-29.51-52.12-41.45-81.18Z"/>
  <path class="cls-1" d="M366.2,313.75c-4.71-32.23-9.39-64.25-13.9-95.09,37.32-9.08,74.53-18.14,112.17-27.3-5.35,36.09-10.75,72.56-16.12,108.8-27.27,4.51-54.02,8.94-82.15,13.59Z"/>
  <path class="cls-1" d="M117.75,522.92c14.03-5.23,28.5-11.05,43.26-16.01,13.97-4.69,28.29-8.33,42.36-12.73,6.76-2.11,10.22-.93,13.43,6.39,11.17,25.5,23.46,50.5,35.67,76.42-21.48,12.68-44.21,26.11-67.1,39.63-26.25-26.45-50.28-56.69-67.62-93.71Z"/>
  <path class="cls-1" d="M86.67,360.62c2.35-11.01,3.87-21.74,6.97-31.98,6.41-21.13,13.72-41.99,20.55-62.99,1.71-5.25,3.54-10.56,4.34-15.99.6-4.08,1.61-6.16,6.1-6.43,14.95-.89,29.88-2.17,44.82-3.19,5.53-.38,11.09-.45,16.63-.71,4.52-.21,6.54.57,5.52,6.31-3.08,17.19-5.82,34.48-7.64,51.84-1.56,14.91-1.98,29.97-2.25,44.98-.09,5.14-1.88,6.74-6.56,7.42-23.47,3.44-46.88,7.29-70.36,10.61-5.6.79-11.42.12-18.13.12Z"/>
  <path class="cls-1" d="M454.46,169.55c-23.61,5.59-46.13,11.1-68.75,16.22-9.63,2.18-19.47,3.44-29.16,5.35-5.12,1.01-7.39-.32-8.16-5.94-3.89-28.51-8.18-56.97-12.37-85.44-.42-2.87-1.1-5.71-1.81-9.37,12.44,1.73,24.23,1.23,35.51,6.73,32.07,15.63,56.79,39.94,80.17,65.99,1.37,1.52,2.39,3.35,4.58,6.47Z"/>
  <path class="cls-1" d="M310.65,96.42c4.55,32.03,9.13,64.1,13.65,96.17.52,3.68.18,6.44-4.77,7.22-20.47,3.19-40.84,7.05-61.32,10.17-10.44,1.59-21.04,2.12-31.66,3.14,4.13-29.37,61.3-112.32,84.09-116.7Z"/>
  <path class="cls-1" d="M391.12,433.69c-11.41-32.02-14.97-63.87-21.43-95.43,25.84-4.64,51.09-9.17,78.16-14.02-2.57,17.12-4.9,32.69-7.23,48.25-.27,1.81-.67,3.6-.86,5.41-.58,5.36-2.46,9.53-6.67,13.62-11.41,11.1-21.87,23.19-32.84,34.75-2.29,2.42-5.19,4.26-9.13,7.42Z"/>
  <path class="cls-1" d="M206.26,629.55c20.88-10.38,40.96-20.36,60.25-29.95,14.83,17.05,29.61,33.45,43.7,50.41,13.88,16.7,34.16,26.98,46.02,45.73-52.66-14.52-104.27-30.73-149.97-66.18Z"/>
  <path class="cls-2" d="M489.66,87.65c-5.96.4-7.31-2.51-6.8-8.08,1.76-19.21,12.04-32.48,30.97-33.09,38.12-1.24,76.34-1.26,114.44.22,20.13.78,31.14,15.98,31.27,39.16-4.12-1.45-8.2-1.94-10.98-4.11-3.11-2.43-5.05-6.38-7.84-10.13-1.29,1.45-2.61,2.28-2.91,3.39-1.27,4.66-3.26,8.03-8.93,7.6-5.36-.41-10.74-.18-12.53-7.13-.37-1.42-2.68-2.8-4.35-3.24-.9-.24-3.28,1.45-3.39,2.44-1.12,10.51-9.07,6.78-14.88,7.29-6.58.58-6.95-4.7-8.23-9.06-.05-.18-.35-.28-.72-.55-3.78-.53-7.05-.76-7.44,4.98-.11,1.64-3.28,3.9-5.4,4.39-3.3.76-6.96.66-10.34.13-1.75-.27-3.92-1.94-4.67-3.55-1.27-2.7-.25-6.9-5.29-6.43-5.03.46-4.47,4.4-4.84,7.77-.05.45-.27.87-.59,1.88h-19.99c-.47-2.15-.62-4.52-1.57-6.52-.65-1.36-2.33-2.93-3.69-3.07-1.43-.15-3.63.9-4.42,2.13-2.28,3.51-.4,11.04-8.39,8.71-4.3-1.25-8.32-3.43-13.36-5.57-1.52,3.04-3.42,6.83-5.34,10.64-.02.01.19-.17.19-.17ZM560.17,56.44c-17.47-4.61-34.9-6.22-52.19-.84-4.39,1.36-8.35,4.8-7.97,12.31,19.48-9.15,40.95-2.83,60.15-11.47Z"/>
  <path class="cls-1" d="M367.76,670.99c-35.06-19.36-54.65-50.85-78.47-80.07,26.21-10.74,52.01-18.19,78.47-22.54v102.61Z"/>
  <path class="cls-1" d="M142.93,215.08c29.12-44.56,69.25-74.14,113.07-100.71-11.44,16.44-23.5,31.44-32.92,47.95-9.51,16.65-16.41,34.78-24.68,52.76h-55.46Z"/>
  <path class="cls-1" d="M458.1,92.11v48.17c-17.86-24.83-41.91-39.89-65.85-58.01,12.34,1.48,23.09,2.5,33.76,4.11,11.09,1.68,22.1,3.92,32.09,5.73Z"/>
  <path class="cls-1" d="M560.17,56.44c-19.2,8.64-40.68,2.32-60.15,11.47-.38-7.51,3.58-10.95,7.97-12.31,17.29-5.37,34.72-3.77,52.19.84Z"/>
</svg>