<?xml version="1.0" encoding="UTF-8" standalone="no"?>
<!-- Created with Inkscape (http://www.inkscape.org/) -->

<svg
   width="37.092827mm"
   height="37.23959mm"
   viewBox="0 0 37.092827 37.23959"
   version="1.1"
   id="svg1"
   inkscape:export-filename="kiwi-profile.svg"
   inkscape:export-xdpi="96"
   inkscape:export-ydpi="96"
   inkscape:version="1.3 (0e150ed6c4, 2023-07-21)"
   sodipodi:docname="kiwisona.svg"
   xmlns:inkscape="http://www.inkscape.org/namespaces/inkscape"
   xmlns:sodipodi="http://sodipodi.sourceforge.net/DTD/sodipodi-0.dtd"
   xmlns="http://www.w3.org/2000/svg"
   xmlns:svg="http://www.w3.org/2000/svg">
  <sodipodi:namedview
     id="namedview1"
     pagecolor="#ffffff"
     bordercolor="#000000"
     borderopacity="0.25"
     inkscape:showpageshadow="2"
     inkscape:pageopacity="0.0"
     inkscape:pagecheckerboard="0"
     inkscape:deskcolor="#d1d1d1"
     inkscape:document-units="mm"
     inkscape:zoom="2.1683361"
     inkscape:cx="327.90119"
     inkscape:cy="409.30001"
     inkscape:window-width="2560"
     inkscape:window-height="1494"
     inkscape:window-x="-11"
     inkscape:window-y="-11"
     inkscape:window-maximized="1"
     inkscape:current-layer="layer1" />
  <defs
     id="defs1">
    <linearGradient
       id="swatch63"
       inkscape:swatch="solid">
      <stop
         style="stop-color:#000000;stop-opacity:1;"
         offset="0"
         id="stop63" />
    </linearGradient>
    <inkscape:path-effect
       effect="bspline"
       id="path-effect62"
       is_visible="true"
       lpeversion="1.3"
       weight="33.333333"
       steps="2"
       helper_size="0"
       apply_no_weight="true"
       apply_with_weight="true"
       only_selected="false"
       uniform="false" />
    <inkscape:path-effect
       effect="bspline"
       id="path-effect46"
       is_visible="true"
       lpeversion="1.3"
       weight="33.333333"
       steps="2"
       helper_size="0"
       apply_no_weight="true"
       apply_with_weight="true"
       only_selected="false"
       uniform="false" />
  </defs>
  <g
     inkscape:groupmode="layer"
     id="layer5"
     inkscape:label="kiwi"
     style="display:none"
     transform="translate(-52.592656,-60.621622)">
    <g
       inkscape:groupmode="layer"
       id="layer2"
       inkscape:label="Layer 2">
      <ellipse
         style="display:none;fill:#deaa87;stroke:none;stroke-width:0.255;stroke-linecap:round;stroke-linejoin:round;paint-order:markers stroke fill"
         id="path41"
         cx="103.02609"
         cy="111.83978"
         rx="73.029785"
         ry="65.586487" />
    </g>
    <g
       inkscape:label="Layer 1"
       inkscape:groupmode="layer"
       id="layer1">
      <path
         d="m 71.110628,161.52228 c 0.0054,-0.41172 0.01359,-0.82542 0.05782,-1.26162 0.05734,-0.56534 0.145828,-1.14954 0.262014,-1.74762 0.116187,-0.59809 0.259824,-1.21011 0.42766,-1.8315 0.167837,-0.62138 0.35967,-1.25198 0.57195,-1.88722 0.21228,-0.63524 0.445365,-1.27518 0.694882,-1.91483 0.249517,-0.63965 0.515348,-1.27918 0.794896,-1.91379 0.279548,-0.63461 0.57274,-1.2645 0.875114,-1.88463 0.604746,-1.24024 1.247518,-2.44189 1.91952,-3.62703 0.672003,-1.18514 1.372935,-2.35342 2.092982,-3.52703 1.440093,-2.3472 2.95703,-4.71502 4.474021,-7.2775 0.758495,-1.28125 1.517263,-2.61108 2.239875,-3.95573 0.722612,-1.34465 1.409236,-2.70411 2.024223,-4.04428 0.307493,-0.67008 0.59704,-1.33517 0.864175,-1.9914 0.267133,-0.65622 0.511975,-1.30334 0.729783,-1.93723 0.217806,-0.63389 0.408789,-1.25447 0.568303,-1.85754 0.159513,-0.60306 0.287486,-1.18907 0.379737,-1.75283 0.09225,-0.56375 0.148792,-1.10555 0.173459,-1.62782 0.02467,-0.52227 0.0174,-1.02462 -0.01719,-1.50957 -0.03458,-0.48494 -0.0968,-0.95255 -0.182316,-1.40435 -0.08552,-0.45179 -0.194318,-0.88778 -0.322438,-1.31058 -0.128118,-0.42281 -0.275684,-0.83239 -0.438077,-1.23037 -0.153286,-0.37566 -0.321891,-0.73935 -0.498503,-1.0965 -0.353077,-0.68972 -0.733866,-1.35572 -1.130355,-1.99765 -0.860995,-1.39401 -1.762964,-2.70585 -2.664932,-4.17659 -0.450983,-0.73537 -0.901709,-1.51059 -1.347571,-2.35552 -0.01489,-0.0282 -0.02888,-0.0643 -0.04376,-0.0927 -0.02738,-0.0513 -0.05549,-0.0925 -0.08283,-0.14428 -0.445867,-0.84497 -0.886862,-1.75959 -1.31736,-2.774328 -0.215248,-0.507371 -0.427895,-1.039947 -0.63081,-1.594479 -0.202916,-0.554531 -0.396303,-1.131219 -0.572471,-1.727308 -0.176169,-0.59609 -0.335366,-1.211427 -0.470375,-1.84347 -0.135007,-0.632044 -0.245608,-1.280569 -0.325041,-1.942962 -0.07943,-0.662393 -0.127552,-1.338646 -0.136997,-2.025785 -0.0095,-0.687138 0.01985,-1.385658 0.0948,-2.091939 0.07496,-0.706281 0.195547,-1.420564 0.369319,-2.140384 0.08689,-0.359909 0.187309,-0.721231 0.301601,-1.083474 0.114293,-0.362243 0.242488,-0.725328 0.385988,-1.089205 0.287001,-0.727753 0.634205,-1.457953 1.03451,-2.183618 0.400306,-0.725664 0.853945,-1.446847 1.353301,-2.15601 0.499357,-0.709164 1.044703,-1.406397 1.628859,-2.084647 0.121086,-0.14059 0.261627,-0.269498 0.385988,-0.408386 a 53.750211,53.750211 0 0 0 -5.684596,3.299388 53.750211,53.750211 0 0 0 -5.877328,4.608935 53.750211,53.750211 0 0 0 -5.181926,5.379347 53.750211,53.750211 0 0 0 -4.385988,6.04558 53.750211,53.750211 0 0 0 -3.505666,6.595135 53.750211,53.750211 0 0 0 -2.557625,7.01757 53.750211,53.750211 0 0 0 -1.56062,7.30408 53.750211,53.750211 0 0 0 -0.532361,7.44994 53.750211,53.750211 0 0 0 0.645396,8.13126 53.750211,53.750211 0 0 0 1.868472,7.9401 53.750211,53.750211 0 0 0 3.048315,7.56609 53.750211,53.750211 0 0 0 4.158355,7.01759 53.750211,53.750211 0 0 0 5.041803,6.14871 z"
         style="display:none;fill:#241c1c;fill-opacity:1;stroke-width:0.257041;stroke-linecap:round;stroke-linejoin:round;paint-order:markers stroke fill"
         id="path34" />
      <circle
         style="fill:#f9f9f9;stroke:none;stroke-width:0.223519;stroke-linecap:round;stroke-linejoin:round;paint-order:markers stroke fill"
         id="path37-2"
         cx="91.368065"
         cy="80.71479"
         r="8.663516" />
      <path
         style="fill:#225500;fill-opacity:1;stroke:#005313;stroke-width:0.799999;stroke-linecap:round;stroke-linejoin:round;stroke-dasharray:none;stroke-opacity:1;paint-order:markers stroke fill"
         d="m 83.991371,67.050739 c -0.172863,0.681285 0.915161,2.6743 1.97269,3.945362 1.05753,1.271062 2.08452,1.820145 3.391181,2.140453 1.306662,0.320307 2.892908,0.411822 7.036618,1.657481 4.14371,1.245659 10.84458,3.645364 16.69149,5.745165 5.8469,2.099802 10.83951,3.899581 13.78837,5.018115 2.94886,1.118534 3.85383,1.555767 4.80968,1.616776 0.95584,0.06101 1.9625,-0.254208 3.13188,-0.528758 1.16939,-0.274551 2.50143,-0.50842 3.10136,-0.660946 0.59994,-0.152526 0.46775,-0.223706 -1.38803,-0.960931 -1.85577,-0.737226 -5.43499,-2.140443 -8.97873,-4.504641 -3.54374,-2.364197 -7.05178,-5.689211 -12.18183,-8.343197 -5.13005,-2.653985 -11.88177,-4.636794 -16.874508,-5.282483 -4.992738,-0.645689 -8.22624,0.04575 -10.559913,0.07625 -2.333672,0.0305 -3.767394,-0.599933 -3.940258,0.08135 z"
         id="path62"
         inkscape:path-effect="#path-effect62"
         inkscape:original-d="m 82.730484,65.739009 c 1.088023,1.993016 2.176048,3.98603 3.264072,5.979046 1.027034,0.549109 2.054024,1.098193 3.081039,1.647288 1.586309,0.09152 3.172555,0.183034 4.758833,0.27455 6.701142,2.3998 13.402012,4.799508 20.103022,7.19926 4.9928,1.799852 9.98541,3.59963 14.97812,5.399444 0.90501,0.437254 1.80998,0.874488 2.71498,1.311731 1.00669,-0.315228 2.01335,-0.630444 3.02002,-0.945666 1.3321,-0.233879 2.66414,-0.467749 3.9962,-0.701622 -0.13219,-0.07118 -0.26438,-0.142359 -0.39657,-0.213538 -3.57936,-1.403273 -7.15858,-2.806491 -10.73788,-4.209737 -3.50818,-3.325149 -7.01622,-6.650165 -10.52434,-9.975247 -6.75198,-1.982885 -13.5037,-3.965694 -20.255545,-5.94854 -3.233631,0.691468 -6.467133,1.382909 -9.700699,2.074363 -1.433779,-0.630457 -2.867501,-1.260888 -4.301252,-1.891332 z" />
      <path
         id="path23"
         style="fill:#a05a2c;stroke:#7f4823;stroke-width:1.255;stroke-linecap:round;stroke-linejoin:round;stroke-dasharray:none;stroke-opacity:1;paint-order:markers stroke fill"
         d="m 103.07278,68.235628 c -0.77637,0.02288 -1.56005,0.08495 -2.34715,0.19172 -0.78709,0.106769 -1.577336,0.258059 -2.368326,0.458887 -0.79099,0.200827 -1.582344,0.450973 -2.370398,0.756026 -0.788054,0.305053 -1.573035,0.665075 -2.34766,1.072286 -0.774626,0.407211 -1.539109,0.861952 -2.286166,1.357023 -0.747057,0.495071 -1.476946,1.030235 -2.182295,1.598869 -0.70535,0.568633 -1.386032,1.170442 -2.035535,1.798339 -0.514871,0.497744 -0.992181,1.022845 -1.463993,1.549777 0.25507,-0.150963 0.511394,-0.299796 0.768945,-0.446485 0.689024,-0.721764 1.418954,-1.416215 2.181262,-2.073258 0.762308,-0.657043 1.557225,-1.276804 2.375049,-1.848466 0.408912,-0.285831 0.823358,-0.559493 1.242818,-0.820105 0.41946,-0.260612 0.843454,-0.508229 1.27124,-0.74104 0.427787,-0.232811 0.859569,-0.450762 1.293461,-0.65319 0.433893,-0.202428 0.870153,-0.38916 1.307931,-0.558622 0.59104,-0.22879 1.183946,-0.426939 1.777152,-0.596347 0.593207,-0.169407 1.186752,-0.309922 1.77922,-0.424263 0.592465,-0.114342 1.183675,-0.202541 1.772505,-0.266134 0.58882,-0.06359 1.17524,-0.102729 1.75751,-0.119889 0.48523,-0.0143 0.96756,-0.01317 1.44643,0.0021 0.47887,0.01523 0.95439,0.04453 1.42523,0.08682 0.94169,0.08457 1.86563,0.221043 2.76521,0.398943 0.89957,0.177899 1.77483,0.397144 2.61896,0.648539 0.84413,0.251395 1.65705,0.534687 2.43241,0.839742 0.731,0.287607 1.41926,0.600383 2.08669,0.925525 0.17483,0.03203 0.3495,0.06493 0.524,0.0987 -0.31339,-0.163037 -0.61838,-0.331146 -0.94568,-0.485759 -0.57412,-0.271211 -1.1703,-0.529552 -1.79059,-0.773596 -0.62028,-0.244044 -1.26443,-0.473717 -1.92959,-0.684713 -0.66516,-0.210995 -1.35145,-0.403245 -2.05466,-0.571024 -0.70321,-0.167779 -1.42358,-0.31142 -2.15801,-0.425814 -0.73442,-0.114394 -1.48291,-0.199273 -2.24172,-0.250114 -0.75881,-0.05084 -1.52788,-0.06732 -2.30425,-0.04444 z m 27.18439,17.362765 c -0.29605,-0.528502 -0.5991,-1.04206 -0.90951,-1.540991 -0.31394,-0.504616 -0.63476,-0.994577 -0.96325,-1.472262 -0.32848,-0.477685 -0.66431,-0.942722 -1.00717,-1.396814 -0.68573,-0.908183 -1.4002,-1.772731 -2.14251,-2.606559 -0.63295,-0.710995 -1.28685,-1.399214 -1.97197,-2.061373 -0.68512,-0.662159 -1.40157,-1.298479 -2.15956,-1.904277 -0.37899,-0.302898 -0.76834,-0.597819 -1.16944,-0.885217 -0.40109,-0.287398 -0.81394,-0.567236 -1.23971,-0.838192 -0.42578,-0.270955 -0.86419,-0.533458 -1.31724,-0.787032 -0.45304,-0.253573 -0.92062,-0.498038 -1.40353,-0.733288 -2.00238,-0.232609 -4.01635,-0.351484 -6.03219,-0.356051 -2.70796,0.01002 -5.41123,0.22631 -8.08633,0.646989 -2.675113,0.420819 -5.314283,1.044809 -7.894604,1.866553 -2.580261,0.821649 -5.094185,1.838655 -7.519954,3.042191 -0.551304,0.577501 -1.076904,1.172128 -1.570964,1.77922 -0.49406,0.607091 -0.956548,1.226477 -1.381828,1.85415 -0.425279,0.627673 -0.813106,1.263481 -1.158068,1.902727 -0.344962,0.639245 -0.647096,1.282105 -0.900204,1.923913 -0.142361,0.360986 -0.269538,0.721187 -0.382922,1.080554 -0.113384,0.359368 -0.213012,0.717816 -0.299207,1.07487 -0.17239,0.714108 -0.292027,1.42322 -0.366386,2.123901 -0.07436,0.700682 -0.103424,1.393115 -0.09405,2.074809 0.0094,0.681694 0.0571,1.352551 0.135909,2.009697 0.07881,0.657145 0.188522,1.300495 0.322461,1.927531 0.133939,0.627036 0.291867,1.237463 0.466638,1.828829 0.174772,0.591365 0.366619,1.163457 0.567924,1.71359 0.201306,0.550133 0.412263,1.078475 0.625802,1.581816 0.412821,0.973073 0.836267,1.845563 1.263489,2.660303 0.415776,0.779 0.834724,1.50881 1.254704,2.19366 0.894817,1.45917 1.789609,2.7605 2.643766,4.14342 0.427078,0.69146 0.84381,1.40368 1.217497,2.15232 0.01048,0.021 0.01905,0.0435 0.02945,0.0646 0.03004,0.0587 0.0666,0.11088 0.09612,0.17001 0.186848,0.37433 0.362891,0.75809 0.523999,1.15291 0.161109,0.39481 0.307491,0.80063 0.434599,1.22008 0.127108,0.41944 0.235033,0.85249 0.319877,1.30069 0.08485,0.44821 0.146549,0.91159 0.180868,1.39268 0.03432,0.4811 0.04152,0.97998 0.01705,1.4981 -0.02447,0.51812 -0.08056,1.05562 -0.172083,1.61489 -0.09152,0.55928 -0.218469,1.14011 -0.376721,1.7384 -0.158252,0.59828 -0.347702,1.21391 -0.56379,1.84278 -0.216087,0.62886 -0.458961,1.27081 -0.723986,1.92184 -0.265025,0.65103 -0.552249,1.31134 -0.857312,1.97611 -0.610128,1.32954 -1.291254,2.67817 -2.008147,4.01216 -0.716893,1.33399 -1.469615,2.65324 -2.222086,3.92431 -1.504942,2.54212 -3.009787,4.89121 -4.438489,7.21971 -0.714351,1.16425 -1.409677,2.32331 -2.076359,3.49901 -0.666683,1.17571 -1.304851,2.36784 -1.904793,3.59823 -0.504236,1.03412 -0.980315,2.09444 -1.4118,3.15898 -0.431486,1.06454 -0.818593,2.13307 -1.144633,3.1843 -0.163021,0.52562 -0.310788,1.04706 -0.441317,1.56115 -0.130529,0.51409 -0.243496,1.02116 -0.337447,1.51825 -0.09395,0.49709 -0.168923,0.9842 -0.222209,1.45883 -0.05329,0.47463 -0.085,0.93668 -0.09353,1.38338 1.649511,1.74152 3.414653,3.36975 5.283398,4.8736 1.868816,1.50399 3.836991,2.88016 5.891113,4.11913 2.054054,1.23873 4.189351,2.33746 6.391342,3.28869 2.202053,0.95145 4.4658,1.75322 6.775813,2.39985 2.310107,0.6466 4.66121,1.13657 7.0373,1.46658 2.37592,0.32989 4.7714,0.49908 7.1701,0.50643 2.46626,-0.005 4.92922,-0.18081 7.37113,-0.52659 2.44205,-0.34571 4.85718,-0.86044 7.22798,-1.54047 2.37072,-0.68018 4.6914,-1.52401 6.94531,-2.52543 2.25387,-1.00137 4.43554,-2.15791 6.52932,-3.46128 2.09383,-1.30328 4.09473,-2.75025 5.98827,-4.33049 1.89352,-1.58031 3.67512,-3.29008 5.33197,-5.117 1.65688,-1.82701 3.18501,-3.76678 4.57337,-5.80533 1.35614,-1.99739 2.57506,-4.08458 3.64835,-6.24716 -0.0644,-0.63708 -0.13924,-1.28339 -0.24856,-1.95647 -0.12743,-0.78456 -0.28628,-1.59355 -0.47956,-2.42776 -0.19328,-0.83422 -0.42084,-1.69347 -0.68523,-2.57814 -0.26438,-0.88467 -0.56559,-1.79492 -0.8971,-2.72128 -0.33151,-0.92637 -0.69356,-1.86864 -1.07901,-2.81843 -0.38544,-0.9498 -0.7944,-1.90689 -1.22059,-2.86184 -0.4262,-0.95496 -0.86967,-1.90812 -1.32344,-2.84996 -0.45376,-0.94184 -0.91782,-1.87231 -1.38596,-2.78278 -0.42963,-0.83556 -0.86289,-1.64836 -1.29398,-2.44274 -0.93529,-1.71474 -1.85999,-3.31426 -2.72128,-4.72271 -0.86432,-1.41342 -1.66513,-2.63624 -2.41122,-3.74654 -0.74609,-1.1103 -1.43741,-2.10814 -2.08308,-3.07165 -0.64566,-0.9635 -1.24562,-1.89242 -1.80867,-2.86546 -0.28153,-0.48651 -0.55383,-0.98402 -0.81804,-1.50223 -0.006,-0.011 -0.0109,-0.0236 -0.0165,-0.0346 -0.0355,-0.0684 -0.0738,-0.13136 -0.10903,-0.20051 -0.26422,-0.5182 -0.52034,-1.05733 -0.76947,-1.62677 -0.24912,-0.56944 -0.49114,-1.16916 -0.72812,-1.79317 -0.23697,-0.62402 -0.46864,-1.27216 -0.69711,-1.93787 -0.45695,-1.33143 -0.90079,-2.73324 -1.34566,-4.154269 -0.44486,-1.421029 -0.89086,-2.861303 -1.35288,-4.26899 -0.46203,-1.407687 -0.94007,-2.782768 -1.4485,-4.07417 -0.25421,-0.6457 -0.51609,-1.270435 -0.78548,-1.875854 -0.26938,-0.605419 -0.54604,-1.191624 -0.83044,-1.760099 -0.24699,-0.493704 -0.50247,-0.968414 -0.76067,-1.436605 z M 116.49728,71.47109 c -0.1745,-0.03377 -0.34917,-0.06667 -0.524,-0.0987 0.48291,0.23525 0.95049,0.479715 1.40353,0.733288 0.45305,0.253574 0.89146,0.516077 1.31724,0.787032 0.42577,0.270956 0.83862,0.550794 1.23971,0.838192 0.4011,0.287398 0.79045,0.582319 1.16944,0.885217 0.75799,0.605798 1.47444,1.242118 2.15956,1.904277 0.68512,0.662159 1.33902,1.350378 1.97197,2.061373 0.74231,0.833828 1.45678,1.698376 2.14251,2.606559 0.34286,0.454092 0.67869,0.919129 1.00717,1.396814 0.32849,0.477685 0.64931,0.967646 0.96325,1.472262 0.31041,0.498931 0.61346,1.012489 0.90951,1.540991 -0.0391,-0.07091 -0.0759,-0.147206 -0.11524,-0.217558 -0.29925,-0.534869 -0.6059,-1.053959 -0.91984,-1.558561 -0.31395,-0.504602 -0.63477,-0.994589 -0.96325,-1.472262 -0.32849,-0.477673 -0.66431,-0.942732 -1.00718,-1.396814 -0.68573,-0.908164 -1.40019,-1.77273 -2.1425,-2.606559 -0.37116,-0.416915 -0.74909,-0.825935 -1.13637,-1.226799 -0.38727,-0.400863 -0.78396,-0.793447 -1.19165,-1.176672 -0.4077,-0.383225 -0.82645,-0.75738 -1.25884,-1.121378 -0.4324,-0.363999 -0.87858,-0.717734 -1.33997,-1.060918 -0.46139,-0.343183 -0.93831,-0.675541 -1.43299,-0.996321 -0.49468,-0.320781 -1.00667,-0.630286 -1.53892,-0.927075 -0.22883,-0.127595 -0.4768,-0.243435 -0.71314,-0.366386 z m 13.75989,14.127303 c 0.2582,0.468191 0.51368,0.942901 0.76067,1.436605 0.2844,0.568475 0.56106,1.15468 0.83044,1.760099 0.26939,0.605419 0.53127,1.230154 0.78548,1.875854 0.50843,1.291402 0.98647,2.666483 1.4485,4.07417 0.46202,1.407687 0.90802,2.847961 1.35288,4.26899 0.44487,1.421029 0.88871,2.822839 1.34566,4.154269 0.22847,0.66571 0.46014,1.31385 0.69711,1.93787 0.23698,0.62401 0.479,1.22373 0.72812,1.79317 0.24913,0.56944 0.50525,1.10857 0.76947,1.62677 0.0352,0.0691 0.0735,0.13208 0.10903,0.20051 -0.25824,-0.50803 -0.50911,-1.03486 -0.75292,-1.59215 -0.24913,-0.56944 -0.49115,-1.16917 -0.72812,-1.79318 -0.23697,-0.624 -0.46865,-1.27216 -0.69712,-1.93786 -0.45694,-1.3314 -0.90079,-2.73328 -1.34565,-4.154271 -0.44486,-1.420986 -0.89087,-2.861335 -1.35289,-4.26899 -0.46203,-1.407655 -0.94006,-2.78277 -1.44849,-4.07417 -0.25422,-0.6457 -0.5161,-1.27043 -0.78548,-1.875854 -0.26939,-0.605424 -0.54605,-1.191615 -0.83044,-1.7601 -0.2844,-0.568484 -0.57667,-1.119281 -0.87592,-1.654162 -0.003,-0.006 -0.007,-0.01155 -0.0103,-0.01757 z m 8.82736,23.128307 c 0.006,0.0111 0.0109,0.0236 0.0165,0.0346 0.26421,0.51821 0.53651,1.01572 0.81804,1.50223 0.56305,0.97304 1.16301,1.90196 1.80867,2.86546 0.64567,0.96351 1.33699,1.96135 2.08308,3.07165 0.74609,1.1103 1.5469,2.33312 2.41122,3.74654 0.86129,1.40845 1.78599,3.00797 2.72128,4.72271 -0.0386,-0.0712 -0.0771,-0.14829 -0.11575,-0.21911 -0.93867,-1.72163 -1.86626,-3.32531 -2.73058,-4.73873 -0.86433,-1.41342 -1.66512,-2.63627 -2.41123,-3.74654 -0.7461,-1.11026 -1.4379,-2.10819 -2.08359,-3.07165 -0.64569,-0.96345 -1.2456,-1.89246 -1.80868,-2.86545 -0.24397,-0.42159 -0.47814,-0.85732 -0.709,-1.30173 z m 9.85883,15.94321 c 0.43109,0.79438 0.86435,1.60718 1.29398,2.44274 0.46814,0.91047 0.9322,1.84094 1.38596,2.78278 0.45377,0.94184 0.89724,1.895 1.32344,2.84996 0.42619,0.95495 0.83515,1.91204 1.22059,2.86184 0.38545,0.94979 0.7475,1.89206 1.07901,2.81843 0.33151,0.92636 0.63272,1.83661 0.8971,2.72128 0.26439,0.88467 0.49195,1.74392 0.68523,2.57814 0.19328,0.83421 0.35213,1.6432 0.47956,2.42776 0.10932,0.67308 0.18413,1.31939 0.24856,1.95647 0.0263,-0.0447 0.0525,-0.0895 0.0786,-0.13436 -0.11416,-1.0116 -0.2777,-2.06333 -0.50178,-3.16053 -0.11204,-0.5486 -0.23921,-1.10871 -0.38292,-1.68052 -0.14371,-0.57182 -0.30395,-1.15559 -0.48214,-1.75183 -0.26439,-0.88467 -0.5656,-1.79492 -0.89711,-2.72128 -0.3315,-0.92636 -0.69355,-1.86865 -1.079,-2.81844 -0.38545,-0.94978 -0.7944,-1.90689 -1.2206,-2.86184 -0.42619,-0.95494 -0.86915,-1.90812 -1.32291,-2.84995 -0.45377,-0.94184 -0.91834,-1.87232 -1.38648,-2.78278 -0.46814,-0.91045 -0.93988,-1.80053 -1.40922,-2.66133 -0.003,-0.006 -0.007,-0.0105 -0.01,-0.0165 z m -77.551333,36.33887 c -0.04316,-0.0525 -0.23113,-0.34142 -0.274091,-0.39404 0.190293,0.24408 0.08906,0.13782 0.274091,0.39404 z m -2e-6,0 c 0.279096,0.34888 0.04025,-0.90875 0.09353,-1.38338 0.05329,-0.47463 0.128258,-0.96174 0.222209,-1.45883 0.09395,-0.49709 0.206918,-1.00416 0.337447,-1.51825 0.130529,-0.51409 0.278296,-1.03553 0.441317,-1.56115 0.32604,-1.05123 0.713147,-2.11976 1.144633,-3.1843 0.431485,-1.06454 0.907564,-2.12486 1.4118,-3.15898 0.599942,-1.23039 1.23811,-2.42252 1.904793,-3.59823 0.666682,-1.1757 1.362008,-2.33476 2.076359,-3.49901 1.428702,-2.3285 2.933547,-4.67759 4.438489,-7.21971 0.752471,-1.27107 1.505193,-2.59032 2.222086,-3.92431 0.716893,-1.33399 1.398019,-2.68262 2.008147,-4.01216 0.305063,-0.66477 0.592287,-1.32508 0.857312,-1.97611 0.265025,-0.65103 0.507899,-1.29298 0.723986,-1.92184 0.216088,-0.62887 0.405538,-1.2445 0.56379,-1.84278 0.158252,-0.59829 0.285204,-1.17912 0.376721,-1.7384 0.09152,-0.55927 0.147615,-1.09677 0.172083,-1.61489 0.02447,-0.51812 0.01727,-1.017 -0.01705,-1.4981 -0.03432,-0.48109 -0.09602,-0.94447 -0.180868,-1.39268 -0.08484,-0.4482 -0.192769,-0.88125 -0.319877,-1.30069 -0.127108,-0.41945 -0.27349,-0.82527 -0.434599,-1.22008 -0.161108,-0.39482 -0.337151,-0.77858 -0.523999,-1.15291 -0.02952,-0.0591 -0.06607,-0.11132 -0.09612,-0.17001 0.175209,0.35431 0.342475,0.71511 0.494544,1.08779 0.161103,0.39482 0.307497,0.80115 0.434598,1.2206 0.127102,0.41944 0.235039,0.85197 0.319877,1.30017 0.08484,0.44821 0.146553,0.91211 0.180868,1.3932 0.03432,0.4811 0.04152,0.97946 0.01705,1.49758 -0.02447,0.51812 -0.08056,1.05562 -0.172082,1.61489 -0.09152,0.55928 -0.218475,1.14064 -0.376721,1.73891 -0.158247,0.59828 -0.347713,1.21393 -0.56379,1.84279 -0.216078,0.62885 -0.458975,1.27083 -0.723987,1.92184 -0.265013,0.65102 -0.552261,1.31083 -0.857312,1.97559 -0.610102,1.32952 -1.291273,2.67819 -2.008146,4.01216 -0.716874,1.33397 -1.469615,2.65324 -2.222087,3.92431 -1.504943,2.54213 -3.009833,4.89115 -4.438489,7.21971 -0.714328,1.16428 -1.409693,2.32329 -2.076359,3.49901 -0.666665,1.17573 -1.304333,2.36784 -1.904276,3.59823 -0.299972,0.6152 -0.590836,1.24009 -0.868164,1.86966 -0.277328,0.62957 -0.541047,1.26402 -0.788583,1.89859 -0.247535,0.63457 -0.478769,1.26943 -0.689363,1.89963 -0.210594,0.63019 -0.400904,1.25578 -0.567408,1.87223 -0.166503,0.61645 -0.308999,1.22361 -0.424263,1.81695 -0.115264,0.59333 -0.203057,1.17289 -0.259933,1.73374 0.02172,0.44775 -0.318388,0.92142 -0.01968,1.29482 z M 85.671257,77.018555 c -0.123373,0.137785 -0.262798,0.265669 -0.382923,0.405143 -0.579516,0.672863 -1.120531,1.364559 -1.615922,2.068091 -0.495391,0.703531 -0.945427,1.418986 -1.342554,2.138887 -0.397126,0.719902 -0.741572,1.444303 -1.026294,2.166276 -0.14236,0.360987 -0.269537,0.721188 -0.382922,1.080555 -0.113385,0.359366 -0.21301,0.717818 -0.299206,1.074869 -0.172392,0.714103 -0.292025,1.422713 -0.366386,2.123385 -0.07436,0.700672 -0.103422,1.393644 -0.09405,2.075325 0.0094,0.681682 0.05711,1.352564 0.135909,2.009697 0.0788,0.657132 0.188525,1.300507 0.32246,1.927531 0.133936,0.627023 0.291869,1.237473 0.466639,1.828829 0.174769,0.591355 0.36662,1.163463 0.567924,1.71359 0.201304,0.550128 0.412262,1.078475 0.625801,1.581816 0.427079,1.006681 0.864571,1.914031 1.306897,2.752291 0.02712,0.0514 0.05501,0.0923 0.08217,0.14314 -0.427222,-0.81474 -0.850668,-1.68723 -1.263489,-2.660303 -0.213539,-0.503341 -0.424496,-1.031683 -0.625802,-1.581816 -0.201305,-0.550133 -0.393152,-1.122225 -0.567924,-1.71359 -0.174771,-0.591366 -0.332699,-1.201793 -0.466638,-1.828829 -0.133939,-0.627036 -0.243655,-1.270386 -0.322461,-1.927531 -0.07881,-0.657146 -0.126535,-1.328003 -0.135909,-2.009697 -0.0094,-0.681694 0.01969,-1.374127 0.09405,-2.074809 0.07436,-0.700681 0.193996,-1.409793 0.366386,-2.123901 0.08619,-0.357054 0.185823,-0.715502 0.299207,-1.07487 0.113384,-0.359367 0.240561,-0.719568 0.382922,-1.080554 0.253108,-0.641808 0.555242,-1.284668 0.900204,-1.923913 0.344962,-0.639246 0.732789,-1.275054 1.158068,-1.902727 0.42528,-0.627673 0.887768,-1.247059 1.381828,-1.85415 0.49406,-0.607092 1.01966,-1.201719 1.570964,-1.77922 -0.257551,0.146689 -0.513875,0.295522 -0.768945,0.446485 z m 0.768945,-0.446485 c 2.425769,-1.203536 4.939693,-2.220542 7.519954,-3.042191 2.580321,-0.821744 5.219491,-1.445734 7.894604,-1.866553 2.6751,-0.420679 5.37837,-0.636968 8.08633,-0.646989 2.01584,0.0046 4.02981,0.123442 6.03219,0.356051 -0.66743,-0.325142 -1.35569,-0.637918 -2.08669,-0.925525 -0.77536,-0.305055 -1.58828,-0.588347 -2.43241,-0.839742 -0.84413,-0.251395 -1.71939,-0.47064 -2.61896,-0.648539 -0.89958,-0.1779 -1.82352,-0.314375 -2.76521,-0.398943 -0.47084,-0.04228 -0.94636,-0.07158 -1.42523,-0.08682 -0.47887,-0.01523 -0.9612,-0.01637 -1.44643,-0.0021 -0.58227,0.01716 -1.16869,0.0563 -1.75751,0.119889 -0.58883,0.06359 -1.18004,0.151792 -1.772505,0.266134 -0.592468,0.114341 -1.186013,0.254856 -1.77922,0.424263 -0.593206,0.169408 -1.186112,0.367557 -1.777152,0.596347 -0.437778,0.169462 -0.874038,0.356194 -1.307931,0.558622 -0.433892,0.202428 -0.865674,0.420379 -1.293461,0.65319 -0.427786,0.232811 -0.85178,0.480428 -1.27124,0.74104 -0.41946,0.260612 -0.833906,0.534274 -1.242818,0.820105 -0.817824,0.571662 -1.612741,1.191423 -2.375049,1.848466 -0.762308,0.657043 -1.492238,1.351494 -2.181262,2.073258 z m -2.771407,25.53591 c 0.01475,0.0281 0.02864,0.064 0.04341,0.092 0.442321,0.83822 0.889467,1.60728 1.336869,2.33681 0.894804,1.45906 1.78961,2.76049 2.643767,4.14342 0.39334,0.63684 0.771105,1.29755 1.121378,1.98179 -0.01041,-0.0211 -0.01898,-0.0436 -0.02945,-0.0646 -0.373687,-0.74864 -0.790419,-1.46086 -1.217497,-2.15232 -0.854157,-1.38292 -1.748949,-2.68425 -2.643766,-4.14342 -0.41998,-0.68485 -0.838928,-1.41466 -1.254704,-2.19366 z"
         inkscape:label="body"
         sodipodi:nodetypes="csssssssccsssssssssscssssccssssssccsssssssssscccccssssssscssssscsssccsssssssssssssssssssscccccccccsccsccsssssssscsssscccssssssssssscsssssssssccsssssssssssscssssssssscsssssssscscscssssccsssscscssssssssccssssssssccccccsssssssssssssssssssssscssssssssssssssssssssssscsssssscsssssscssssscssssssscsscccccssssscsssssssssccccssccssscc" />
      <path
         style="fill:none;fill-opacity:1;stroke:#000000;stroke-width:1.6451;stroke-linecap:round;stroke-linejoin:round;stroke-dasharray:none;stroke-opacity:1;paint-order:markers stroke fill"
         d="m 74.546371,76.083166 c 0,0 0.04026,7.109586 1.476692,8.079457 1.436436,0.96987 5.216531,2.90961 6.80417,0.831317 1.587639,-2.078295 3.099673,-9.698708 1.890043,-12.331211 -1.20963,-2.632508 -7.938194,-3.740931 -9.223426,-1.662637 -1.285232,2.078294 -0.947479,5.083074 -0.947479,5.083074 z"
         id="path45-9"
         sodipodi:nodetypes="cssssc" />
      <path
         style="fill:#d4aa00;stroke:#ca9800;stroke-width:0.555;stroke-linecap:round;stroke-linejoin:round;stroke-dasharray:none;stroke-opacity:1;paint-order:markers stroke fill"
         d="m 62.841001,90.173788 c 7.443304,0.12202 4.514791,-1.586277 16.228842,0.610106 5.634794,1.056523 10.372226,1.49901 12.50527,0.787174 2.301296,-0.767986 2.892898,-1.919837 2.892898,-1.919837 l 1.379768,-2.527979 c 0,0 -1.525266,0.976171 -3.355585,0.976171 -1.830321,0 -20.255547,-2.440427 -20.255547,-2.440427 z"
         id="path44"
         sodipodi:nodetypes="cssccscc" />
      <path
         style="fill:#ffcc00;stroke:#ca9800;stroke-width:0.555;stroke-linecap:round;stroke-linejoin:round;stroke-dasharray:none;stroke-opacity:1;paint-order:markers stroke fill"
         d="m 87.306286,82.120377 c 0,0 -12.751234,0.366064 -20.926663,2.928511 -8.175432,2.56245 -22.940017,16.960972 -22.940017,16.960972 0,0 15.374691,-9.639688 23.184058,-12.812244 7.809368,-3.172555 19.645441,-1.342236 19.645441,-1.342236 0,0 5.940055,1.324296 8.358461,0.06101 1.154764,-0.603206 0.536671,-0.0031 -3.944773,-2.268622 -1.625759,-0.821875 -3.376507,-3.527391 -3.376507,-3.527391 z"
         id="path43"
         sodipodi:nodetypes="cscscssc" />
      <path
         style="fill:none;fill-opacity:1;stroke:#000000;stroke-width:1.7;stroke-linecap:round;stroke-linejoin:round;stroke-dasharray:none;stroke-opacity:1;paint-order:markers stroke fill"
         d="m 84.599631,81.062064 c 1.16481,-0.603975 2.329595,-1.207938 3.652614,-0.949086 1.323019,0.258851 2.804164,1.380496 4.285341,2.502165"
         id="path46"
         inkscape:path-effect="#path-effect46"
         inkscape:original-d="m 84.599631,81.062064 c 1.16481,-0.603975 2.329595,-1.207938 3.494427,-1.811925 1.481206,1.12169 2.962351,2.243335 4.443528,3.365004"
         sodipodi:nodetypes="ccc"
         transform="matrix(0.96984396,0,0,1.0075991,2.8003021,-0.61805843)" />
    </g>
    <g
       inkscape:groupmode="layer"
       id="layer4"
       inkscape:label="hat">
      <path
         style="fill:#3c9600;fill-opacity:1;stroke:#005313;stroke-width:1.1;stroke-linecap:round;stroke-linejoin:round;stroke-dasharray:none;stroke-opacity:1;paint-order:markers stroke fill"
         d="m 97.63733,64.142448 -14.925383,1.56636 c 0,0 -0.290935,1.473217 2.415564,3.448395 2.7065,1.975179 6.98236,1.990177 6.98236,1.990177 0,0 6.278581,-0.891723 10.049619,-0.57122 2.92165,0.758908 3.40046,2.968536 7.11551,4.644699 8.93901,3.925016 9.36898,2.236506 13.40193,3.511556 6.64388,2.10051 4.6875,5.614505 9.68134,6.572877 3.5081,0.673244 6.51594,0.69568 6.51594,0.69568 l -9.25915,-10.070895 c 0,0 0.72547,-8.963251 -0.0259,-10.892366 -1.1899,-3.055184 -20.13206,-10.084667 -22.62037,-9.238004 -2.48833,0.846664 -9.3315,8.342741 -9.3315,8.342741 z"
         id="path55" />
    </g>
  </g>
  <g
     inkscape:groupmode="layer"
     id="layer6"
     inkscape:label="moon"
     transform="translate(-52.592656,-60.621622)">
    <path
       id="path1"
       style="fill:#f4eed7;fill-opacity:1;stroke:none;stroke-width:0.555001;paint-order:markers stroke fill"
       d="m 73.735551,60.621623 a 15.313682,15.313682 0 0 1 5.577954,11.703678 l 5.17e-4,0.09457 A 15.313682,15.313682 0 0 1 64.023999,87.733146 15.313682,15.313682 0 0 1 52.592655,82.617179 18.73028,18.73028 0 0 0 70.984298,97.86121 18.73028,18.73028 0 0 0 89.685482,79.131087 V 79.015332 A 18.73028,18.73028 0 0 0 73.735551,60.621623 Z" />
  </g>
</svg>
